PathFileType	4	(X/Y/Z)	Kaydara																																																																																																																									
DataRate	CameraRate	NumFrames	NumMarkers	Units	OrigDataRate	OrigDataStartFrame	OrigNumFrames																																																																																																																					
30	30	4	41	mm	30	29	111																																																																																																																					
Frame#	Time	PAIB_LFHD			PAIB_RFHD			PAIB_LBHD			PAIB_RBHD			PAIB_LFTShould			PAIB_RFTShould			PAIB_LRRShould			PAIB_RRRShould			PAIB_T10			PAIB_STRN			PAIB_TRUN			PAIB_LSHO			PAIB_LUPA			PAIB_LELB			PAIB_LFRM			PAIB_LWRA			PAIB_LWRB			PAIB_LFIN			PAIB_RSHO			PAIB_RUPA			PAIB_RELB			PAIB_RFRM			PAIB_RWRA			PAIB_RWRB			PAIB_RFIN			PAIB_LFWT			PAIB_RFWT			PAIB_LBWT			PAIB_RBWT			PAIB_LTHI			PAIB_LKNE			PAIB_LSHN			PAIB_LANK			PAIB_LHEE			PAIB_LTOE			PAIB_RTHI			PAIB_RKNE			PAIB_RSHN			PAIB_RANK			PAIB_RHEE			PAIB_RTOE		
		X1	Y1	Z1	X2	Y2	Z2	X3	Y3	Z3	X4	Y4	Z4	X5	Y5	Z5	X6	Y6	Z6	X7	Y7	Z7	X8	Y8	Z8	X9	Y9	Z9	X10	Y10	Z10	X11	Y11	Z11	X12	Y12	Z12	X13	Y13	Z13	X14	Y14	Z14	X15	Y15	Z15	X16	Y16	Z16	X17	Y17	Z17	X18	Y18	Z18	X19	Y19	Z19	X20	Y20	Z20	X21	Y21	Z21	X22	Y22	Z22	X23	Y23	Z23	X24	Y24	Z24	X25	Y25	Z25	X26	Y26	Z26	X27	Y27	Z27	X28	Y28	Z28	X29	Y29	Z29	X30	Y30	Z30	X31	Y31	Z31	X32	Y32	Z32	X33	Y33	Z33	X34	Y34	Z34	X35	Y35	Z35	X36	Y36	Z36	X37	Y37	Z37	X38	Y38	Z38	X39	Y39	Z39	X40	Y40	Z40	X41	Y41	Z41
																																																																																																																												
14	0.933	269.88308	1679.49997	-1945.93552	82.9263	1679.12369	-1954.62311	285.40371	1661.577	-2074.74319	81.98618	1670.21622	-2072.02759	240.27006	1422.35687	-1990.21317	117.41689	1422.05383	-1999.80682	257.19988	1501.83975	-2127.55493	105.4587	1502.67807	-2126.79047	181.25381	1351.66626	-2222.93365	186.39187	1353.97293	-1962.55539	183.67168	1250.80086	-1949.54468	376.67122	1442.3056	-2065.38605	439.23363	1219.99443	-2109.03427	453.0291	1144.73541	-2157.89215	469.23367	1027.99507	-2114.35577	408.69289	919.51309	-2027.22122	447.04277	899.67789	-2092.66541	458.17909	863.84972	-2029.01962	-7.57918	1434.57108	-2061.33636	-81.27504	1279.71352	-2139.34265	-113.56649	1170.05753	-2164.34753	-134.75815	1035.06958	-2129.79584	-76.65993	933.8562	-2032.76642	-144.49104	919.27681	-2078.84491	-136.6044	884.27994	-2013.94073	289.93162	977.84187	-2007.93076	52.27308	980.69374	-2011.59943	226.54982	1009.06792	-2229.43634	84.09797	1020.51216	-2222.65976	268.7849	738.87962	-2203.53012	314.66442	497.75127	-2090.04364	288.33258	305.74322	-2091.61407	281.1565	130.07378	-2196.85333	219.99414	122.66658	-2237.16904	282.81202	75.59941	-2022.17987	20.13939	715.63187	-2183.58841	2.0688	484.5673	-2065.98282	55.17842	295.39568	-2071.29379	10.42352	112.88499	-2181.04935	68.02255	114.42328	-2223.81256	40.18517	76.84664	-1987.42142
15	0.967	269.62177	1679.52103	-1945.44495	82.78726	1679.2308	-1954.28833	285.33043	1661.62064	-2074.26117	81.90915	1670.23895	-2071.73004	240.0827	1422.15591	-1989.90341	117.32711	1421.85501	-1999.63257	256.98576	1501.75476	-2127.12967	105.31914	1502.5415	-2126.46713	181.24723	1351.45447	-2222.35214	186.12673	1353.74359	-1962.33612	183.35073	1250.60822	-1950.00534	376.45638	1442.10602	-2065.04196	438.52558	1219.50714	-2108.38181	452.46799	1144.57222	-2157.72125	468.71346	1027.80075	-2114.24377	408.24345	919.1671	-2027.23053	446.57875	899.46709	-2092.67914	457.96703	863.75694	-2029.20822	-7.69207	1434.36615	-2061.23459	-81.14428	1279.48448	-2139.33823	-113.36348	1169.81293	-2164.31686	-134.72178	1034.81049	-2129.80164	-76.81126	933.59779	-2032.7771	-144.56429	919.0033	-2078.95981	-136.71065	883.95264	-2014.06738	289.84621	977.86255	-2007.23862	51.94126	980.3817	-2011.60248	226.66071	1009.03519	-2228.90549	84.18787	1020.47104	-2222.4559	268.49257	738.96477	-2202.87674	314.44376	497.72739	-2089.77661	288.15201	305.98597	-2091.39191	281.05221	130.01681	-2196.86142	219.93446	122.69197	-2237.15836	282.78494	75.59748	-2022.22763	19.79153	715.36591	-2183.34335	2.0952	484.46888	-2065.4776	55.36607	295.25215	-2071.01593	10.48377	112.88353	-2180.96588	68.0765	114.50014	-2223.78082	40.14613	76.78722	-1987.4295
16	1	269.4405	1679.52393	-1945.1178	82.66901	1679.32983	-1954.01962	285.1651	1661.1586	-2073.86276	81.7052	1669.94476	-2071.49048	239.83595	1421.63452	-1989.42474	116.72923	1420.93475	-2000.37872	256.79962	1501.49017	-2126.37543	105.14122	1502.28622	-2125.95673	181.21393	1351.26953	-2221.72897	185.70194	1353.22601	-1962.09137	183.04668	1250.15038	-1948.90961	376.1969	1441.77963	-2064.37775	438.05248	1219.08066	-2108.00613	451.94504	1144.39529	-2157.70554	468.19065	1027.53479	-2114.22577	407.8532	918.89481	-2027.10052	446.01772	899.27811	-2092.60956	457.58888	863.47885	-2029.11835	-7.91416	1433.94409	-2061.0141	-81.10668	1279.03702	-2139.21906	-113.25785	1169.3544	-2164.2363	-134.56797	1034.40781	-2129.75632	-76.85536	933.21953	-2032.50656	-144.61627	918.60344	-2078.8945	-136.95356	883.55675	-2013.90182	289.5574	977.78633	-2006.56174	51.7915	980.51651	-2011.10901	226.79306	1008.66898	-2228.38913	84.34415	1020.08675	-2222.35596	268.62482	738.71452	-2202.11029	314.12067	497.49451	-2088.81012	287.77576	305.81623	-2090.99808	280.98324	129.98373	-2196.62308	219.92409	122.76306	-2237.09351	282.69913	75.61151	-2022.14127	19.8057	714.88266	-2182.7417	2.42555	484.03591	-2063.49075	55.50618	294.87793	-2070.48065	10.5306	112.88546	-2180.77789	68.12608	114.51856	-2223.62762	40.2036	76.77938	-1987.32758
17	1.033	269.24578	1679.3811	-1944.8027	82.58487	1679.33075	-1953.55347	284.97446	1660.65994	-2073.53302	81.48253	1669.68552	-2071.05621	239.52782	1420.89783	-1989.01291	116.27836	1420.6488	-1997.91901	256.5094	1501.23047	-2125.60562	104.80629	1501.98273	-2125.31723	181.03674	1351.16058	-2221.18347	185.34458	1352.42401	-1961.90765	182.57809	1249.24484	-1949.49615	375.81902	1441.35208	-2063.60794	437.93285	1218.98392	-2107.94754	451.71276	1144.04007	-2157.2728	467.82711	1027.12112	-2113.94928	407.36042	918.50548	-2026.84036	445.47558	898.84224	-2092.39594	457.03548	863.01636	-2028.92639	-8.16824	1433.31284	-2060.50049	-81.1485	1278.39439	-2138.84872	-113.2204	1168.71246	-2163.98911	-134.63264	1033.77815	-2129.59457	-77.14412	932.52983	-2032.24533	-144.68644	918.01765	-2078.73032	-137.18977	883.07167	-2013.76678	289.19279	977.54166	-2005.76416	51.38142	980.1535	-2010.8905	226.90035	1008.33031	-2227.67212	84.44776	1019.67957	-2222.00317	268.97779	738.45978	-2201.39969	313.79093	497.28836	-2087.99103	287.30415	305.74648	-2090.35812	280.90637	130.05745	-2196.42792	219.91314	122.79702	-2237.03415	282.54881	75.61479	-2022.11533	20.32276	714.62738	-2182.15988	2.54126	483.94531	-2062.53601	55.47575	294.77913	-2070.27084	10.60717	112.80954	-2180.76538	68.16404	114.49376	-2223.53561	40.20783	76.74833	-1987.38678
